<svg width="86" height="42" viewBox="0 0 86 42" fill="none" xmlns="http://www.w3.org/2000/svg">
<path d="M30.3 34V19.6H32.52V34H30.3ZM41.9242 27.52C41.9242 26.18 41.2642 25.22 39.7442 25.22C38.9442 25.22 37.0842 25.68 37.0842 28.24V34H34.9842V23.6H37.0042V25.06C37.7042 24.08 38.7842 23.36 40.3042 23.36C42.8242 23.36 44.0042 25.16 44.0042 27.3V34H41.9242V27.52ZM49.3914 34L45.3314 23.6H47.5914L50.5514 31.88L53.4714 23.6H55.7314L51.6714 34H49.3914ZM63.535 34V32.78C62.635 33.88 61.495 34.24 60.235 34.24C57.935 34.24 56.455 33.14 56.455 31.14C56.455 29.3 57.815 28.36 60.315 27.9L63.455 27.32V26.64C63.455 25.54 62.775 25.08 61.375 25.08C60.175 25.08 59.015 25.5 58.955 26.86H56.875C56.935 24.36 59.015 23.36 61.375 23.36C64.175 23.36 65.515 24.54 65.515 26.42V34H63.535ZM58.615 31.08C58.615 31.96 59.215 32.56 60.555 32.56C61.975 32.56 63.455 31.78 63.455 29.92V28.88L60.675 29.46C59.415 29.72 58.615 30.02 58.615 31.08ZM67.5623 34V23.6H69.5823V25.4C70.3423 23.94 71.5223 23.48 72.8023 23.48H73.6023V25.46H72.7423C70.9823 25.46 69.6623 26.2 69.6623 28.7V34H67.5623Z" fill="white"/>
<rect y="16.1421" width="20" height="20" fill="white"/>
<rect x="26.071" width="14.2426" height="14.2426" transform="rotate(45 26.071 0)" fill="white"/>
</svg>
